<svg xmlns="http://www.w3.org/2000/svg" viewBox="0 0 64 64">
  <defs>
    <linearGradient id="wc" x1="0" y1="0" x2="0" y2="1">
      <stop offset="0" stop-color="#7bcf3a"/>
      <stop offset="1" stop-color="#3fb340"/>
    </linearGradient>
  </defs>
  <rect width="64" height="64" rx="14" fill="url(#wc)"/>
  <path fill="#fff" d="M24 20.5c-6.35 0-11.5 4.25-11.5 9.5 0 3.05 1.75 5.75 4.5 7.5l-1 3.5 4-2a13 13 0 0 0 4 .5c.35 0 .65 0 1-.05-.3-1-.5-2.05-.5-3.1 0-5.35 5-9.7 11.25-9.85C36 22.2 30.5 20.5 24 20.5zm-4.5 6a1.5 1.5 0 1 1 0 3 1.5 1.5 0 0 1 0-3zm8.5 0a1.5 1.5 0 1 1 0 3 1.5 1.5 0 0 1 0-3z"/>
  <path fill="#fff" d="M46.5 34.5c0-4.5-4.5-8-10-8s-10 3.5-10 8 4.5 8 10 8a11 11 0 0 0 3.3-.5l3.2 1.7-.9-2.9c2.7-1.5 4.4-3.9 4.4-6.3zm-13 -2a1.2 1.2 0 1 1 0 2.4 1.2 1.2 0 0 1 0-2.4zm6.5 0a1.2 1.2 0 1 1 0 2.4 1.2 1.2 0 0 1 0-2.4z"/>
</svg>
