<svg xmlns="http://www.w3.org/2000/svg" viewBox="0 0 48 48">
  <circle cx="24" cy="24" r="22" fill="#25D366"/>
  <path fill="#ffffff" d="M24 10a14 14 0 0 0-12 21.2L10 38l6.9-1.8A14 14 0 1 0 24 10Zm8.2 20c-.4 1-2 1.9-2.9 2-.8.1-1.8.2-5.8-1.4-4.9-2-8-7-8.2-7.3-.2-.3-1.9-2.6-1.9-5 0-2.3 1.2-3.5 1.7-4a1.8 1.8 0 0 1 1.3-.6h1c.3 0 .8 0 1.2 1 .4 1 1.4 3.5 1.5 3.7.1.2.2.5 0 .8a6 6 0 0 1-.8 1c-.4.4-.8.8-.4 1.5.5.8 2 3.3 4.3 5.3 3 2.5 5.4 3.3 6.2 3.7.8.4 1.2.3 1.7-.2.4-.5 1.9-2.2 2.4-3 .5-.7 1-.6 1.7-.4.7.3 4.3 2 5 2.4.7.3 1.2.5 1.4.8.2.3.2 1.8-.4 3.5Z"/>
</svg>
